# xmcd CD database file
#
# Track frame offsets:
#	150
#	100621
#	109241
#	115702
#	124784
#	133517
#	142362
#	150229
#	161736
#	166608
#	178393
#
# Disc length: 2480 seconds
#
# Revision: 0
# Processed by: cddbd v1.5.1PL0 Copyright (c) Steve Scherf et al.
# Submitted via: CDex 1.51
#
DISCID=8f09ae0b
DTITLE=BLACKRAINBOW - 催眠学園
DYEAR=2003
DGENRE=Game
TTITLE0=Data Track
TTITLE1=BROAD DAYLIGHT
TTITLE2=静夜
TTITLE3=Sala Wing
TTITLE4=哀しみ
TTITLE5=危機
TTITLE6=凌辱03
TTITLE7=Funny Days
TTITLE8=Motion "C"
TTITLE9=Motion "D"
TTITLE10=SaiMiN
EXTD=YEAR: 2003
EXTT0=
EXTT1=
EXTT2=
EXTT3=
EXTT4=
EXTT5=
EXTT6=
EXTT7=
EXTT8=
EXTT9=
EXTT10=
PLAYORDER=
